<svg width="80" height="80" viewBox="0 0 80 80" fill="none" xmlns="http://www.w3.org/2000/svg">
<path d="M6 25.1115V54.86C5.99994 56.3058 6.38051 57.7262 7.10346 58.9782C7.82642 60.2303 8.86627 61.27 10.1185 61.9928L35.8807 76.8671C37.1331 77.5895 38.5534 77.9699 39.9992 77.9699C41.445 77.9699 42.8653 77.5895 44.1177 76.8671L69.8815 61.9928C71.1335 61.2698 72.1732 60.23 72.8961 58.978C73.619 57.726 73.9997 56.3057 74 54.86V25.1115C74 23.6652 73.6194 22.2445 72.8965 20.9919C72.1736 19.7393 71.1338 18.699 69.8815 17.9755L44.1177 3.1028C42.8653 2.38033 41.445 2 39.9992 2C38.5534 2 37.1331 2.38033 35.8807 3.1028L10.1185 17.9755C8.86601 18.6987 7.82604 19.739 7.1031 20.9916C6.38015 22.2443 5.9997 23.6652 6 25.1115Z" fill="url(#paint0_linear_1910_4773)"/>
<defs>
<linearGradient id="paint0_linear_1910_4773" x1="6" y1="3.58767" x2="81.6337" y2="72.3329" gradientUnits="userSpaceOnUse">
<stop stop-color="#9747FF"/>
<stop offset="1" stop-color="#5B0BB9"/>
</linearGradient>
</defs>
</svg>
