<svg width="81" height="81" viewBox="0 0 81 81" fill="none" xmlns="http://www.w3.org/2000/svg">
<circle cx="40.75" cy="40.0151" r="34" fill="black" fill-opacity="0.12"/>
<circle cx="40.75" cy="40.0151" r="29" fill="url(#paint0_linear_2016_491)" fill-opacity="0.3"/>
<path d="M41 27C38.4288 27 35.9154 27.7624 33.7776 29.1909C31.6398 30.6194 29.9735 32.6497 28.9896 35.0251C28.0056 37.4006 27.7482 40.0144 28.2498 42.5362C28.7514 45.0579 29.9895 47.3743 31.8076 49.1924C33.6257 51.0105 35.9421 52.2486 38.4638 52.7502C40.9856 53.2518 43.5995 52.9944 45.9749 52.0104C48.3503 51.0265 50.3807 49.3603 51.8091 47.2224C53.2376 45.0846 54 42.5712 54 40C53.9964 36.5533 52.6256 33.2488 50.1884 30.8116C47.7512 28.3744 44.4467 27.0036 41 27ZM41 48C40.7033 48 40.4133 47.912 40.1667 47.7472C39.92 47.5824 39.7277 47.3481 39.6142 47.074C39.5007 46.7999 39.471 46.4983 39.5288 46.2074C39.5867 45.9164 39.7296 45.6491 39.9393 45.4393C40.1491 45.2296 40.4164 45.0867 40.7074 45.0288C40.9983 44.9709 41.2999 45.0007 41.574 45.1142C41.8481 45.2277 42.0824 45.42 42.2472 45.6666C42.412 45.9133 42.5 46.2033 42.5 46.5C42.5 46.8978 42.342 47.2794 42.0607 47.5607C41.7794 47.842 41.3978 48 41 48ZM42 41.91V42C42 42.2652 41.8946 42.5196 41.7071 42.7071C41.5196 42.8946 41.2652 43 41 43C40.7348 43 40.4804 42.8946 40.2929 42.7071C40.1054 42.5196 40 42.2652 40 42V41C40 40.7348 40.1054 40.4804 40.2929 40.2929C40.4804 40.1054 40.7348 40 41 40C42.6538 40 44 38.875 44 37.5C44 36.125 42.6538 35 41 35C39.3463 35 38 36.125 38 37.5V38C38 38.2652 37.8946 38.5196 37.7071 38.7071C37.5196 38.8946 37.2652 39 37 39C36.7348 39 36.4804 38.8946 36.2929 38.7071C36.1054 38.5196 36 38.2652 36 38V37.5C36 35.0188 38.2425 33 41 33C43.7575 33 46 35.0188 46 37.5C46 39.6725 44.28 41.4913 42 41.91Z" fill="black" fill-opacity="0.12"/>
<defs>
<linearGradient id="paint0_linear_2016_491" x1="11.75" y1="12.2272" x2="69.75" y2="71.1235" gradientUnits="userSpaceOnUse">
<stop stop-color="white"/>
<stop offset="1" stop-color="white" stop-opacity="0.2"/>
</linearGradient>
</defs>
</svg>
