<svg width="81" height="80" viewBox="0 0 81 80" fill="none" xmlns="http://www.w3.org/2000/svg">
<path d="M71.75 12.8771V31.8549C71.75 60.7914 47.2665 70.3918 42.3646 72.0225C41.3176 72.3785 40.1824 72.3785 39.1354 72.0225C34.2271 70.3918 9.75 60.7914 9.75 31.8549V12.8771C9.75 11.5068 10.2943 10.1926 11.2633 9.22367C12.2322 8.25473 13.5464 7.71039 14.9167 7.71039H66.5833C67.9536 7.71039 69.2678 8.25473 70.2367 9.22367C71.2057 10.1926 71.75 11.5068 71.75 12.8771Z" fill="black" fill-opacity="0.12" stroke="black" stroke-opacity="0.12" stroke-width="0.5"/>
<path d="M66.75 16.2518V32.1687C66.75 56.438 46.2154 64.4899 42.1042 65.8576C41.2261 66.1562 40.2739 66.1562 39.3958 65.8576C35.2792 64.4899 14.75 56.438 14.75 32.1687V16.2518C14.75 15.1025 15.2065 14.0003 16.0192 13.1877C16.8319 12.375 17.9341 11.9185 19.0833 11.9185H62.4167C63.5659 11.9185 64.6681 12.375 65.4808 13.1877C66.2935 14.0003 66.75 15.1025 66.75 16.2518Z" fill="url(#paint0_linear_2016_495)" fill-opacity="0.3"/>
<path d="M41 23C38.4288 23 35.9154 23.7624 33.7776 25.1909C31.6398 26.6194 29.9735 28.6497 28.9896 31.0251C28.0056 33.4006 27.7482 36.0144 28.2498 38.5362C28.7514 41.0579 29.9895 43.3743 31.8076 45.1924C33.6257 47.0105 35.9421 48.2486 38.4638 48.7502C40.9856 49.2518 43.5995 48.9944 45.9749 48.0104C48.3503 47.0265 50.3807 45.3603 51.8091 43.2224C53.2376 41.0846 54 38.5712 54 36C53.9964 32.5533 52.6256 29.2488 50.1884 26.8116C47.7512 24.3744 44.4467 23.0036 41 23ZM41 44C40.7033 44 40.4133 43.912 40.1667 43.7472C39.92 43.5824 39.7277 43.3481 39.6142 43.074C39.5007 42.7999 39.471 42.4983 39.5288 42.2074C39.5867 41.9164 39.7296 41.6491 39.9393 41.4393C40.1491 41.2296 40.4164 41.0867 40.7074 41.0288C40.9983 40.9709 41.2999 41.0007 41.574 41.1142C41.8481 41.2277 42.0824 41.42 42.2472 41.6666C42.412 41.9133 42.5 42.2033 42.5 42.5C42.5 42.8978 42.342 43.2794 42.0607 43.5607C41.7794 43.842 41.3978 44 41 44ZM42 37.91V38C42 38.2652 41.8946 38.5196 41.7071 38.7071C41.5196 38.8946 41.2652 39 41 39C40.7348 39 40.4804 38.8946 40.2929 38.7071C40.1054 38.5196 40 38.2652 40 38V37C40 36.7348 40.1054 36.4804 40.2929 36.2929C40.4804 36.1054 40.7348 36 41 36C42.6538 36 44 34.875 44 33.5C44 32.125 42.6538 31 41 31C39.3463 31 38 32.125 38 33.5V34C38 34.2652 37.8946 34.5196 37.7071 34.7071C37.5196 34.8946 37.2652 35 37 35C36.7348 35 36.4804 34.8946 36.2929 34.7071C36.1054 34.5196 36 34.2652 36 34V33.5C36 31.0188 38.2425 29 41 29C43.7575 29 46 31.0188 46 33.5C46 35.6725 44.28 37.4913 42 37.91Z" fill="black" fill-opacity="0.12"/>
<defs>
<linearGradient id="paint0_linear_2016_495" x1="14.75" y1="13.0504" x2="68.902" y2="65.8431" gradientUnits="userSpaceOnUse">
<stop stop-color="white"/>
<stop offset="1" stop-color="white" stop-opacity="0.2"/>
</linearGradient>
</defs>
</svg>
