<svg width="81" height="81" viewBox="0 0 81 81" fill="none" xmlns="http://www.w3.org/2000/svg">
<path d="M6.25 25.1265V54.8751C6.24994 56.3209 6.63051 57.7412 7.35346 58.9933C8.07642 60.2454 9.11627 61.2851 10.3685 62.0079L36.1307 76.8821C37.3831 77.6046 38.8034 77.9849 40.2492 77.9849C41.695 77.9849 43.1153 77.6046 44.3677 76.8821L70.1315 62.0079C71.3835 61.2849 72.4232 60.2451 73.1461 58.9931C73.869 57.741 74.2497 56.3208 74.25 54.8751V25.1265C74.25 23.6803 73.8694 22.2596 73.1465 21.007C72.4236 19.7544 71.3838 18.7141 70.1315 17.9905L44.3677 3.11788C43.1153 2.39541 41.695 2.01508 40.2492 2.01508C38.8034 2.01508 37.3831 2.39541 36.1307 3.11788L10.3685 17.9905C9.11601 18.7138 8.07604 19.7541 7.3531 21.0067C6.63015 22.2594 6.2497 23.6802 6.25 25.1265Z" fill="black" fill-opacity="0.12"/>
<path d="M12.2039 27.7315V52.267C12.2039 53.4605 12.5183 54.633 13.1154 55.6665C13.7125 56.6999 14.5713 57.5578 15.6054 58.1539L36.8557 70.4216C37.8883 71.0182 39.0598 71.3323 40.2524 71.3323C41.445 71.3323 42.6165 71.0182 43.6491 70.4216L64.901 58.1539C65.9338 57.5572 66.7915 56.6992 67.3877 55.6662C67.9839 54.6331 68.2978 53.4613 68.2978 52.2686V27.7331C68.298 26.5404 67.9842 25.3688 67.3879 24.3359C66.7917 23.3031 65.9339 22.4455 64.901 21.8493L43.646 9.57837C42.6133 8.9818 41.4418 8.66772 40.2492 8.66772C39.0566 8.66772 37.8851 8.9818 36.8525 9.57837L15.6054 21.8477C14.5715 22.4432 13.7127 23.3005 13.1155 24.3334C12.5184 25.3663 12.2039 26.5384 12.2039 27.7315Z" fill="url(#paint0_linear_2016_487)" fill-opacity="0.3"/>
<path d="M40 27C37.4288 27 34.9154 27.7624 32.7776 29.1909C30.6398 30.6194 28.9735 32.6497 27.9896 35.0251C27.0056 37.4006 26.7482 40.0144 27.2498 42.5362C27.7514 45.0579 28.9895 47.3743 30.8076 49.1924C32.6257 51.0105 34.9421 52.2486 37.4638 52.7502C39.9856 53.2518 42.5995 52.9944 44.9749 52.0104C47.3503 51.0265 49.3807 49.3603 50.8091 47.2224C52.2376 45.0846 53 42.5712 53 40C52.9964 36.5533 51.6256 33.2488 49.1884 30.8116C46.7512 28.3744 43.4467 27.0036 40 27ZM40 48C39.7033 48 39.4133 47.912 39.1667 47.7472C38.92 47.5824 38.7277 47.3481 38.6142 47.074C38.5007 46.7999 38.471 46.4983 38.5288 46.2074C38.5867 45.9164 38.7296 45.6491 38.9393 45.4393C39.1491 45.2296 39.4164 45.0867 39.7074 45.0288C39.9983 44.9709 40.2999 45.0007 40.574 45.1142C40.8481 45.2277 41.0824 45.42 41.2472 45.6666C41.412 45.9133 41.5 46.2033 41.5 46.5C41.5 46.8978 41.342 47.2794 41.0607 47.5607C40.7794 47.842 40.3978 48 40 48ZM41 41.91V42C41 42.2652 40.8946 42.5196 40.7071 42.7071C40.5196 42.8946 40.2652 43 40 43C39.7348 43 39.4804 42.8946 39.2929 42.7071C39.1054 42.5196 39 42.2652 39 42V41C39 40.7348 39.1054 40.4804 39.2929 40.2929C39.4804 40.1054 39.7348 40 40 40C41.6538 40 43 38.875 43 37.5C43 36.125 41.6538 35 40 35C38.3463 35 37 36.125 37 37.5V38C37 38.2652 36.8946 38.5196 36.7071 38.7071C36.5196 38.8946 36.2652 39 36 39C35.7348 39 35.4804 38.8946 35.2929 38.7071C35.1054 38.5196 35 38.2652 35 38V37.5C35 35.0188 37.2425 33 40 33C42.7575 33 45 35.0188 45 37.5C45 39.6725 43.28 41.4913 41 41.91Z" fill="black" fill-opacity="0.12"/>
<defs>
<linearGradient id="paint0_linear_2016_487" x1="12.2039" y1="9.97733" x2="74.5915" y2="66.6863" gradientUnits="userSpaceOnUse">
<stop stop-color="white"/>
<stop offset="1" stop-color="white" stop-opacity="0.2"/>
</linearGradient>
</defs>
</svg>
