<svg width="28" height="28" viewBox="0 0 28 28" fill="none" xmlns="http://www.w3.org/2000/svg">
<path fill-rule="evenodd" clip-rule="evenodd" d="M9.87649 0H18.1235C20.8585 0 22.2256 0 23.6979 0.465402C25.3052 1.05045 26.5711 2.31636 27.1562 3.92371C27.6216 5.39575 27.6216 6.76336 27.6216 9.49813V17.7451C27.6216 20.4801 27.6216 21.8473 27.1562 23.3195C26.5711 24.9269 25.3052 26.1928 23.6979 26.7776C22.2256 27.2432 20.8585 27.2432 18.1235 27.2432H9.87649C7.14149 27.2432 5.77411 27.2432 4.30207 26.7776C2.69471 26.1928 1.42881 24.9269 0.843762 23.3195C0.378357 21.8473 0.378357 20.4801 0.378357 17.7451V9.49813C0.378357 6.76336 0.378357 5.39575 0.843762 3.92371C1.42881 2.31636 2.69471 1.05045 4.30207 0.465402C5.77411 0 7.14149 0 9.87649 0ZM10.8523 10.2284V21.3105L14.5932 18.0029L18.3342 21.3105V10.0273C18.3342 7.81435 16.9304 6.24177 14.248 6.24177H8.52401C10.0841 6.77217 10.8523 7.97909 10.8523 10.2284Z" fill="white"/>
</svg>
