<svg width="80" height="80" viewBox="0 0 80 80" fill="none" xmlns="http://www.w3.org/2000/svg">
<path d="M15.0265 58.2697L15.0264 58.2696C14.0304 57.6954 13.2032 56.8691 12.628 55.8737C12.0528 54.8782 11.75 53.7489 11.75 52.5992V28.0637C11.7501 26.9146 12.053 25.7857 12.6281 24.7908C13.2033 23.7959 14.0304 22.9701 15.0263 22.3966L15.0265 22.3965L36.2736 10.1271L36.2737 10.1271C37.2683 9.55252 38.3967 9.25 39.5454 9.25C40.694 9.25 41.8224 9.55252 42.817 10.1271L42.8171 10.1272L64.0722 22.3981L64.0722 22.3981C65.0671 22.9723 65.8932 23.7984 66.4676 24.7932C67.0419 25.788 67.3441 26.9166 67.3439 28.0653V52.6008C67.3439 53.7497 67.0416 54.8784 66.4673 55.8735C65.893 56.8685 65.067 57.6949 64.0722 58.2696C64.0722 58.2697 64.0721 58.2697 64.0721 58.2697L42.8203 70.5374L42.8202 70.5374C41.8256 71.112 40.6972 71.4146 39.5485 71.4146C38.3999 71.4146 37.2715 71.112 36.2769 70.5374L36.2768 70.5374L15.0265 58.2697Z" fill="url(#paint0_linear_1910_4773)" fill-opacity="0.3" stroke="url(#paint1_linear_1910_4773)" stroke-width="0.5"/>
<defs>
<linearGradient id="paint0_linear_1910_4773" x1="11.5" y1="10.3096" x2="73.8876" y2="67.0186" gradientUnits="userSpaceOnUse">
<stop stop-color="white"/>
<stop offset="1" stop-color="white" stop-opacity="0.2"/>
</linearGradient>
<linearGradient id="paint1_linear_1910_4773" x1="16.8488" y1="14.9388" x2="72.2629" y2="70.3529" gradientUnits="userSpaceOnUse">
<stop stop-color="white"/>
<stop offset="1" stop-color="white" stop-opacity="0"/>
</linearGradient>
</defs>
</svg>
