<svg width="508" height="507" viewBox="0 0 508 507" fill="none" xmlns="http://www.w3.org/2000/svg">
<path d="M191.979 0L254 253.25L219.602 0H191.979Z" fill="url(#paint0_radial_2037_682)"/>
<path d="M141.829 0L254 253.25L173.277 0H141.829Z" fill="url(#paint1_radial_2037_682)"/>
<path d="M85.5888 0L254 253.25L119.144 0H85.5888Z" fill="url(#paint2_radial_2037_682)"/>
<path d="M29.8738 0L254 253.25L64.9742 0H29.8738Z" fill="url(#paint3_radial_2037_682)"/>
<path d="M0.75 31.0231L254 253.25L0.75 0V31.0231Z" fill="url(#paint4_radial_2037_682)"/>
<path d="M0.75 83.5535L254 253.25L0.75 55.5124V83.5535Z" fill="url(#paint5_radial_2037_682)"/>
<path d="M0.75 136.907L254 253.25L0.75 104.991V136.907Z" fill="url(#paint6_radial_2037_682)"/>
<path d="M0.75 184.182L254 253.25L0.75 154.641V184.182Z" fill="url(#paint7_radial_2037_682)"/>
<path d="M0.75 229.508L254 253.25L0.75 201.334V229.508Z" fill="url(#paint8_radial_2037_682)"/>
<path d="M0.75 265.913L254 253.25L0.75 240.588V265.913Z" fill="url(#paint9_radial_2037_682)"/>
<path d="M240.192 0L254 253.25L267.808 0H240.192Z" fill="url(#paint10_radial_2037_682)"/>
<path d="M288.391 0L254 253.25L316.021 0H288.391Z" fill="url(#paint11_radial_2037_682)"/>
<path d="M334.723 0L254 253.25L366.171 0H334.723Z" fill="url(#paint12_radial_2037_682)"/>
<path d="M388.856 0L254 253.25L422.411 0H388.856Z" fill="url(#paint13_radial_2037_682)"/>
<path d="M443.019 0L254 253.25L478.126 0H443.019Z" fill="url(#paint14_radial_2037_682)"/>
<path d="M507.25 0L254 253.25L507.25 31.0231V0Z" fill="url(#paint15_radial_2037_682)"/>
<path d="M507.25 55.5124L254 253.25L507.25 83.5535V55.5124Z" fill="url(#paint16_radial_2037_682)"/>
<path d="M507.25 104.991L254 253.25L507.25 136.907V104.991Z" fill="url(#paint17_radial_2037_682)"/>
<path d="M507.25 154.641L254 253.25L507.25 184.182V154.641Z" fill="url(#paint18_radial_2037_682)"/>
<path d="M507.25 201.334L254 253.25L507.25 229.508V201.334Z" fill="url(#paint19_radial_2037_682)"/>
<path d="M267.808 506.5L254 253.25L240.192 506.5H267.808Z" fill="url(#paint20_radial_2037_682)"/>
<path d="M219.602 506.5L254 253.25L191.979 506.5H219.602Z" fill="url(#paint21_radial_2037_682)"/>
<path d="M173.277 506.5L254 253.25L141.829 506.5H173.277Z" fill="url(#paint22_radial_2037_682)"/>
<path d="M119.144 506.5L254 253.25L85.5888 506.5H119.144Z" fill="url(#paint23_radial_2037_682)"/>
<path d="M64.9742 506.5L254 253.25L29.8738 506.5H64.9742Z" fill="url(#paint24_radial_2037_682)"/>
<path d="M0.75 506.5L254 253.25L0.75 475.477V506.5Z" fill="url(#paint25_radial_2037_682)"/>
<path d="M0.75 450.988L254 253.25L0.75 422.947V450.988Z" fill="url(#paint26_radial_2037_682)"/>
<path d="M0.75 401.509L254 253.25L0.75 369.593V401.509Z" fill="url(#paint27_radial_2037_682)"/>
<path d="M0.75 351.859L254 253.25L0.75 322.318V351.859Z" fill="url(#paint28_radial_2037_682)"/>
<path d="M0.75 305.166L254 253.25L0.75 276.992V305.166Z" fill="url(#paint29_radial_2037_682)"/>
<path d="M316.021 506.5L254 253.25L288.391 506.5H316.021Z" fill="url(#paint30_radial_2037_682)"/>
<path d="M366.171 506.5L254 253.25L334.723 506.5H366.171Z" fill="url(#paint31_radial_2037_682)"/>
<path d="M422.411 506.5L254 253.25L388.856 506.5H422.411Z" fill="url(#paint32_radial_2037_682)"/>
<path d="M478.126 506.5L254 253.25L443.019 506.5H478.126Z" fill="url(#paint33_radial_2037_682)"/>
<path d="M507.25 475.477L254 253.25L507.25 506.5V475.477Z" fill="url(#paint34_radial_2037_682)"/>
<path d="M507.25 422.947L254 253.25L507.25 450.988V422.947Z" fill="url(#paint35_radial_2037_682)"/>
<path d="M507.25 369.593L254 253.25L507.25 401.509V369.593Z" fill="url(#paint36_radial_2037_682)"/>
<path d="M507.25 322.318L254 253.25L507.25 351.859V322.318Z" fill="url(#paint37_radial_2037_682)"/>
<path d="M507.25 276.992L254 253.25L507.25 305.166V276.992Z" fill="url(#paint38_radial_2037_682)"/>
<path d="M507.25 240.588L254 253.25L507.25 265.913V240.588Z" fill="url(#paint39_radial_2037_682)"/>
<defs>
<radialGradient id="paint0_radial_2037_682" cx="0" cy="0" r="1" gradientUnits="userSpaceOnUse" gradientTransform="translate(254 253.25) rotate(90) scale(253.25)">
<stop stop-color="#9747FF" stop-opacity="0.04"/>
<stop offset="1" stop-color="#9747FF" stop-opacity="0"/>
</radialGradient>
<radialGradient id="paint1_radial_2037_682" cx="0" cy="0" r="1" gradientUnits="userSpaceOnUse" gradientTransform="translate(254 253.25) rotate(90) scale(253.25)">
<stop stop-color="#9747FF" stop-opacity="0.04"/>
<stop offset="1" stop-color="#9747FF" stop-opacity="0"/>
</radialGradient>
<radialGradient id="paint2_radial_2037_682" cx="0" cy="0" r="1" gradientUnits="userSpaceOnUse" gradientTransform="translate(254 253.25) rotate(90) scale(253.25)">
<stop stop-color="#9747FF" stop-opacity="0.04"/>
<stop offset="1" stop-color="#9747FF" stop-opacity="0"/>
</radialGradient>
<radialGradient id="paint3_radial_2037_682" cx="0" cy="0" r="1" gradientUnits="userSpaceOnUse" gradientTransform="translate(254 253.25) rotate(90) scale(253.25)">
<stop stop-color="#9747FF" stop-opacity="0.04"/>
<stop offset="1" stop-color="#9747FF" stop-opacity="0"/>
</radialGradient>
<radialGradient id="paint4_radial_2037_682" cx="0" cy="0" r="1" gradientUnits="userSpaceOnUse" gradientTransform="translate(254 253.25) rotate(90) scale(253.25)">
<stop stop-color="#9747FF" stop-opacity="0.04"/>
<stop offset="1" stop-color="#9747FF" stop-opacity="0"/>
</radialGradient>
<radialGradient id="paint5_radial_2037_682" cx="0" cy="0" r="1" gradientUnits="userSpaceOnUse" gradientTransform="translate(254 253.25) rotate(90) scale(253.25)">
<stop stop-color="#9747FF" stop-opacity="0.04"/>
<stop offset="1" stop-color="#9747FF" stop-opacity="0"/>
</radialGradient>
<radialGradient id="paint6_radial_2037_682" cx="0" cy="0" r="1" gradientUnits="userSpaceOnUse" gradientTransform="translate(254 253.25) rotate(90) scale(253.25)">
<stop stop-color="#9747FF" stop-opacity="0.04"/>
<stop offset="1" stop-color="#9747FF" stop-opacity="0"/>
</radialGradient>
<radialGradient id="paint7_radial_2037_682" cx="0" cy="0" r="1" gradientUnits="userSpaceOnUse" gradientTransform="translate(254 253.25) rotate(90) scale(253.25)">
<stop stop-color="#9747FF" stop-opacity="0.04"/>
<stop offset="1" stop-color="#9747FF" stop-opacity="0"/>
</radialGradient>
<radialGradient id="paint8_radial_2037_682" cx="0" cy="0" r="1" gradientUnits="userSpaceOnUse" gradientTransform="translate(254 253.25) rotate(90) scale(253.25)">
<stop stop-color="#9747FF" stop-opacity="0.04"/>
<stop offset="1" stop-color="#9747FF" stop-opacity="0"/>
</radialGradient>
<radialGradient id="paint9_radial_2037_682" cx="0" cy="0" r="1" gradientUnits="userSpaceOnUse" gradientTransform="translate(254 253.25) rotate(90) scale(253.25)">
<stop stop-color="#9747FF" stop-opacity="0.04"/>
<stop offset="1" stop-color="#9747FF" stop-opacity="0"/>
</radialGradient>
<radialGradient id="paint10_radial_2037_682" cx="0" cy="0" r="1" gradientUnits="userSpaceOnUse" gradientTransform="translate(254 253.25) rotate(90) scale(253.25)">
<stop stop-color="#9747FF" stop-opacity="0.04"/>
<stop offset="1" stop-color="#9747FF" stop-opacity="0"/>
</radialGradient>
<radialGradient id="paint11_radial_2037_682" cx="0" cy="0" r="1" gradientUnits="userSpaceOnUse" gradientTransform="translate(254 253.25) rotate(90) scale(253.25)">
<stop stop-color="#9747FF" stop-opacity="0.04"/>
<stop offset="1" stop-color="#9747FF" stop-opacity="0"/>
</radialGradient>
<radialGradient id="paint12_radial_2037_682" cx="0" cy="0" r="1" gradientUnits="userSpaceOnUse" gradientTransform="translate(254 253.25) rotate(90) scale(253.25)">
<stop stop-color="#9747FF" stop-opacity="0.04"/>
<stop offset="1" stop-color="#9747FF" stop-opacity="0"/>
</radialGradient>
<radialGradient id="paint13_radial_2037_682" cx="0" cy="0" r="1" gradientUnits="userSpaceOnUse" gradientTransform="translate(254 253.25) rotate(90) scale(253.25)">
<stop stop-color="#9747FF" stop-opacity="0.04"/>
<stop offset="1" stop-color="#9747FF" stop-opacity="0"/>
</radialGradient>
<radialGradient id="paint14_radial_2037_682" cx="0" cy="0" r="1" gradientUnits="userSpaceOnUse" gradientTransform="translate(254 253.25) rotate(90) scale(253.25)">
<stop stop-color="#9747FF" stop-opacity="0.04"/>
<stop offset="1" stop-color="#9747FF" stop-opacity="0"/>
</radialGradient>
<radialGradient id="paint15_radial_2037_682" cx="0" cy="0" r="1" gradientUnits="userSpaceOnUse" gradientTransform="translate(254 253.25) rotate(90) scale(253.25)">
<stop stop-color="#9747FF" stop-opacity="0.04"/>
<stop offset="1" stop-color="#9747FF" stop-opacity="0"/>
</radialGradient>
<radialGradient id="paint16_radial_2037_682" cx="0" cy="0" r="1" gradientUnits="userSpaceOnUse" gradientTransform="translate(254 253.25) rotate(90) scale(253.25)">
<stop stop-color="#9747FF" stop-opacity="0.04"/>
<stop offset="1" stop-color="#9747FF" stop-opacity="0"/>
</radialGradient>
<radialGradient id="paint17_radial_2037_682" cx="0" cy="0" r="1" gradientUnits="userSpaceOnUse" gradientTransform="translate(254 253.25) rotate(90) scale(253.25)">
<stop stop-color="#9747FF" stop-opacity="0.04"/>
<stop offset="1" stop-color="#9747FF" stop-opacity="0"/>
</radialGradient>
<radialGradient id="paint18_radial_2037_682" cx="0" cy="0" r="1" gradientUnits="userSpaceOnUse" gradientTransform="translate(254 253.25) rotate(90) scale(253.25)">
<stop stop-color="#9747FF" stop-opacity="0.04"/>
<stop offset="1" stop-color="#9747FF" stop-opacity="0"/>
</radialGradient>
<radialGradient id="paint19_radial_2037_682" cx="0" cy="0" r="1" gradientUnits="userSpaceOnUse" gradientTransform="translate(254 253.25) rotate(90) scale(253.25)">
<stop stop-color="#9747FF" stop-opacity="0.04"/>
<stop offset="1" stop-color="#9747FF" stop-opacity="0"/>
</radialGradient>
<radialGradient id="paint20_radial_2037_682" cx="0" cy="0" r="1" gradientUnits="userSpaceOnUse" gradientTransform="translate(254 253.25) rotate(90) scale(253.25)">
<stop stop-color="#9747FF" stop-opacity="0.04"/>
<stop offset="1" stop-color="#9747FF" stop-opacity="0"/>
</radialGradient>
<radialGradient id="paint21_radial_2037_682" cx="0" cy="0" r="1" gradientUnits="userSpaceOnUse" gradientTransform="translate(254 253.25) rotate(90) scale(253.25)">
<stop stop-color="#9747FF" stop-opacity="0.04"/>
<stop offset="1" stop-color="#9747FF" stop-opacity="0"/>
</radialGradient>
<radialGradient id="paint22_radial_2037_682" cx="0" cy="0" r="1" gradientUnits="userSpaceOnUse" gradientTransform="translate(254 253.25) rotate(90) scale(253.25)">
<stop stop-color="#9747FF" stop-opacity="0.04"/>
<stop offset="1" stop-color="#9747FF" stop-opacity="0"/>
</radialGradient>
<radialGradient id="paint23_radial_2037_682" cx="0" cy="0" r="1" gradientUnits="userSpaceOnUse" gradientTransform="translate(254 253.25) rotate(90) scale(253.25)">
<stop stop-color="#9747FF" stop-opacity="0.04"/>
<stop offset="1" stop-color="#9747FF" stop-opacity="0"/>
</radialGradient>
<radialGradient id="paint24_radial_2037_682" cx="0" cy="0" r="1" gradientUnits="userSpaceOnUse" gradientTransform="translate(254 253.25) rotate(90) scale(253.25)">
<stop stop-color="#9747FF" stop-opacity="0.04"/>
<stop offset="1" stop-color="#9747FF" stop-opacity="0"/>
</radialGradient>
<radialGradient id="paint25_radial_2037_682" cx="0" cy="0" r="1" gradientUnits="userSpaceOnUse" gradientTransform="translate(254 253.25) rotate(90) scale(253.25)">
<stop stop-color="#9747FF" stop-opacity="0.04"/>
<stop offset="1" stop-color="#9747FF" stop-opacity="0"/>
</radialGradient>
<radialGradient id="paint26_radial_2037_682" cx="0" cy="0" r="1" gradientUnits="userSpaceOnUse" gradientTransform="translate(254 253.25) rotate(90) scale(253.25)">
<stop stop-color="#9747FF" stop-opacity="0.04"/>
<stop offset="1" stop-color="#9747FF" stop-opacity="0"/>
</radialGradient>
<radialGradient id="paint27_radial_2037_682" cx="0" cy="0" r="1" gradientUnits="userSpaceOnUse" gradientTransform="translate(254 253.25) rotate(90) scale(253.25)">
<stop stop-color="#9747FF" stop-opacity="0.04"/>
<stop offset="1" stop-color="#9747FF" stop-opacity="0"/>
</radialGradient>
<radialGradient id="paint28_radial_2037_682" cx="0" cy="0" r="1" gradientUnits="userSpaceOnUse" gradientTransform="translate(254 253.25) rotate(90) scale(253.25)">
<stop stop-color="#9747FF" stop-opacity="0.04"/>
<stop offset="1" stop-color="#9747FF" stop-opacity="0"/>
</radialGradient>
<radialGradient id="paint29_radial_2037_682" cx="0" cy="0" r="1" gradientUnits="userSpaceOnUse" gradientTransform="translate(254 253.25) rotate(90) scale(253.25)">
<stop stop-color="#9747FF" stop-opacity="0.04"/>
<stop offset="1" stop-color="#9747FF" stop-opacity="0"/>
</radialGradient>
<radialGradient id="paint30_radial_2037_682" cx="0" cy="0" r="1" gradientUnits="userSpaceOnUse" gradientTransform="translate(254 253.25) rotate(90) scale(253.25)">
<stop stop-color="#9747FF" stop-opacity="0.04"/>
<stop offset="1" stop-color="#9747FF" stop-opacity="0"/>
</radialGradient>
<radialGradient id="paint31_radial_2037_682" cx="0" cy="0" r="1" gradientUnits="userSpaceOnUse" gradientTransform="translate(254 253.25) rotate(90) scale(253.25)">
<stop stop-color="#9747FF" stop-opacity="0.04"/>
<stop offset="1" stop-color="#9747FF" stop-opacity="0"/>
</radialGradient>
<radialGradient id="paint32_radial_2037_682" cx="0" cy="0" r="1" gradientUnits="userSpaceOnUse" gradientTransform="translate(254 253.25) rotate(90) scale(253.25)">
<stop stop-color="#9747FF" stop-opacity="0.04"/>
<stop offset="1" stop-color="#9747FF" stop-opacity="0"/>
</radialGradient>
<radialGradient id="paint33_radial_2037_682" cx="0" cy="0" r="1" gradientUnits="userSpaceOnUse" gradientTransform="translate(254 253.25) rotate(90) scale(253.25)">
<stop stop-color="#9747FF" stop-opacity="0.04"/>
<stop offset="1" stop-color="#9747FF" stop-opacity="0"/>
</radialGradient>
<radialGradient id="paint34_radial_2037_682" cx="0" cy="0" r="1" gradientUnits="userSpaceOnUse" gradientTransform="translate(254 253.25) rotate(90) scale(253.25)">
<stop stop-color="#9747FF" stop-opacity="0.04"/>
<stop offset="1" stop-color="#9747FF" stop-opacity="0"/>
</radialGradient>
<radialGradient id="paint35_radial_2037_682" cx="0" cy="0" r="1" gradientUnits="userSpaceOnUse" gradientTransform="translate(254 253.25) rotate(90) scale(253.25)">
<stop stop-color="#9747FF" stop-opacity="0.04"/>
<stop offset="1" stop-color="#9747FF" stop-opacity="0"/>
</radialGradient>
<radialGradient id="paint36_radial_2037_682" cx="0" cy="0" r="1" gradientUnits="userSpaceOnUse" gradientTransform="translate(254 253.25) rotate(90) scale(253.25)">
<stop stop-color="#9747FF" stop-opacity="0.04"/>
<stop offset="1" stop-color="#9747FF" stop-opacity="0"/>
</radialGradient>
<radialGradient id="paint37_radial_2037_682" cx="0" cy="0" r="1" gradientUnits="userSpaceOnUse" gradientTransform="translate(254 253.25) rotate(90) scale(253.25)">
<stop stop-color="#9747FF" stop-opacity="0.04"/>
<stop offset="1" stop-color="#9747FF" stop-opacity="0"/>
</radialGradient>
<radialGradient id="paint38_radial_2037_682" cx="0" cy="0" r="1" gradientUnits="userSpaceOnUse" gradientTransform="translate(254 253.25) rotate(90) scale(253.25)">
<stop stop-color="#9747FF" stop-opacity="0.04"/>
<stop offset="1" stop-color="#9747FF" stop-opacity="0"/>
</radialGradient>
<radialGradient id="paint39_radial_2037_682" cx="0" cy="0" r="1" gradientUnits="userSpaceOnUse" gradientTransform="translate(254 253.25) rotate(90) scale(253.25)">
<stop stop-color="#9747FF" stop-opacity="0.04"/>
<stop offset="1" stop-color="#9747FF" stop-opacity="0"/>
</radialGradient>
</defs>
</svg>
